<?xml version="1.0" encoding="UTF-8" standalone="no"?>
<!-- Created with Inkscape (http://www.inkscape.org/) -->

<svg
   version="1.1"
   id="svg1"
   width="1121.9781"
   height="316.27637"
   viewBox="0 0 1121.9781 316.27637"
   xmlns="http://www.w3.org/2000/svg"
   xmlns:svg="http://www.w3.org/2000/svg">
  <defs
     id="defs1" />
  <g
     id="g1">
    <path
       style="fill:#000000"
       d="m 861.13192,315.57645 c -4.44726,-0.3689 -11.53012,-1.32376 -13.44,-1.81188 -0.768,-0.19628 -1.78909,-0.42661 -2.26909,-0.51184 -1.96778,-0.3494 -7.69545,-1.96466 -10.47273,-2.9534 -4.99622,-1.77872 -8.54685,-3.2184 -8.66909,-3.51509 -0.064,-0.15534 -0.37819,-0.28272 -0.69819,-0.28308 -1.55832,-0.002 -13.27675,-6.92021 -16.2909,-9.61799 -0.576,-0.51554 -1.83273,-1.52675 -2.79273,-2.24713 -2.15567,-1.61759 -7.73292,-7.09885 -9.09609,-8.93953 -0.55476,-0.74908 -1.35211,-1.7226 -1.7719,-2.16337 -2.3544,-2.47209 -7.77292,-11.66539 -9.8853,-16.77181 -3.24129,-7.83546 -5.6406,-17.05505 -6.87351,-26.41224 -0.69165,-5.24923 -0.81042,-20.71184 -0.1971,-25.65818 1.25395,-10.11284 4.78757,-26.94551 5.82916,-27.76764 0.25364,-0.2002 0.57502,-1.14275 0.71417,-2.09454 0.30481,-2.08492 3.52645,-11.34022 5.23826,-15.04876 0.27927,-0.60502 0.50776,-1.26395 0.50776,-1.4643 0,-0.20035 0.54982,-1.57076 1.22182,-3.04537 0.672,-1.47461 1.22182,-2.80762 1.22182,-2.96225 0,-0.15464 0.47127,-1.29935 1.04727,-2.5438 0.576,-1.24445 1.04727,-2.51213 1.04727,-2.81708 0,-0.30494 0.14651,-0.55444 0.32557,-0.55444 0.17906,0 0.43203,-0.35346 0.56216,-0.78546 0.34311,-1.13907 9.89861,-20.44095 12.05415,-24.34909 1.00603,-1.824 2.35385,-4.30855 2.99516,-5.52123 0.6413,-1.21268 1.54,-2.86214 1.9971,-3.66546 0.45711,-0.80332 1.4238,-2.56022 2.1482,-3.90422 0.7244,-1.344 1.71579,-3.072 2.20308,-3.84 0.48729,-0.768 1.41325,-2.40306 2.05769,-3.63346 0.64445,-1.23041 1.45439,-2.64423 1.79988,-3.14182 0.34548,-0.4976 1.18316,-1.92581 1.86151,-3.17381 0.67834,-1.248 2.03558,-3.60436 3.01607,-5.236366 0.9805,-1.632 1.95217,-3.3568 2.15928,-3.83289 0.20711,-0.4761 0.50272,-0.94737 0.65692,-1.04728 0.15419,-0.0999 0.63615,-0.88855 1.07102,-1.75255 0.43486,-0.864 1.06352,-1.96364 1.39702,-2.44364 0.3335,-0.48 1.12607,-1.89382 1.76126,-3.14182 0.63519,-1.248 1.41606,-2.66182 1.73526,-3.14182 0.3192,-0.48 1.29321,-2.208 2.16446,-3.84 0.87125,-1.632 2.2826,-4.14545 3.13633,-5.58545 3.45304,-5.8243 10.56669,-19.44762 12.85101,-24.61091 0.42471,-0.96 1.61865,-3.52188 2.65318,-5.69306 1.03453,-2.17119 1.88097,-4.14268 1.88097,-4.38109 0,-0.23842 0.12886,-0.58272 0.28636,-0.76512 0.15749,-0.1824 0.68863,-1.35273 1.18031,-2.60073 0.49167,-1.248 1.3839,-3.48296 1.98273,-4.96658 0.59883,-1.48362 1.08878,-2.94598 1.08878,-3.24969 0,-0.30372 0.15709,-0.45512 0.34909,-0.33646 0.19611,0.12121 0.34909,-0.15563 0.34909,-0.63172 0,-0.46611 0.47482,-2.24266 1.05515,-3.94788 1.5939,-4.68342 1.7481,-5.19688 2.47596,-8.2443 0.59591,-2.49498 1.18459,-5.7476198 2.02178,-11.1710498 0.3541,-2.29387 0.59898,-2.34792 0.86645,-0.19125 0.35141,2.83341 2.36178,11.8518298 3.75736,16.8552898 1.11296,3.99025 4.72183,14.163 5.54029,15.61708 0.18766,0.3334 0.34119,0.75539 0.34119,0.93777 0,1.12009 15.93619,33.03898 18.61062,37.27555 0.46935,0.74349 1.35598,2.34749 1.9703,3.56446 0.61433,1.21697 1.2763,2.38934 1.47106,2.60527 0.19476,0.21593 0.8502,1.2892 1.45652,2.38505 0.60633,1.09585 3.44618,6.04421 6.31078,10.99636 2.86461,4.95216 5.67694,9.867916 6.24964,10.923916 0.57269,1.056 1.33147,2.33698 1.68617,2.84662 0.3547,0.50964 0.64491,1.01462 0.64491,1.12219 0,0.10757 0.84178,1.65423 1.87061,3.43702 1.02884,1.78279 2.30617,4.10544 2.83851,5.16144 0.53235,1.056 1.07659,1.99855 1.20944,2.09455 0.13284,0.096 1.01551,1.6638 1.96149,3.484 0.94597,1.8202 1.91632,3.52015 2.15632,3.77766 0.24,0.25752 0.43636,0.69263 0.43636,0.96691 0,0.91733 0.0394,1.01911 0.66586,1.72052 0.82074,0.91893 7.08285,12.78027 8.52388,16.14545 0.34943,0.816 0.76375,1.48364 0.92071,1.48364 0.15697,0 0.61322,-0.66764 1.01391,-1.48364 0.40068,-0.816 1.17962,-2.26909 1.73097,-3.22909 0.55136,-0.96 1.79065,-3.16093 2.75398,-4.89097 0.96333,-1.73003 3.84055,-6.67839 6.39383,-10.99636 2.55327,-4.31797 5.31472,-9.11479 6.13654,-10.65961 0.82182,-1.54482 3.00663,-5.47209 4.85514,-8.72727 1.84851,-3.25518 5.37346,-10.002876 7.83323,-14.994876 8.72396,-17.70494 12.45813,-27.95496 14.34086,-39.36459 0.43605,-2.64253 0.86352,-4.73389 0.94993,-4.64748 0.0864,0.0864 0.38086,1.46303 0.65432,3.05914 1.37749,8.04004 4.5164,18.58924 8.02557,26.97214 3.191,7.62297 13.1753,27.024086 19.4111,37.718976 9.4956,16.28565 17.4381,30.37388 22.4049,39.74089 2.3446,4.42177 8.9343,17.57897 8.9343,17.83847 0,0.0977 0.477,1.21905 1.0599,2.49183 0.6897,1.5058 0.9464,2.45387 0.735,2.71419 -0.6207,0.76429 -7.9736,15.4388 -10.1221,20.20114 -1.1886,2.63459 -3.1244,7.34732 -4.3018,10.47273 -1.9811,5.2589 -2.1365,5.87776 -2.0843,8.30074 0.1746,8.10656 2.492,19.82229 5.9382,30.02182 1.1825,3.49978 4.7456,11.40401 6.0573,13.43745 5.2214,8.0942 8.4721,12.2708 13.2231,16.98985 11.8138,11.73431 31.9054,18.89964 48.73,17.37875 2.3936,-0.21638 4.4286,-0.31674 4.5223,-0.22304 0.1867,0.18669 -4.355,1.69948 -6.8557,2.28359 -6.9197,1.61625 -11.3133,2.14357 -17.879,2.14589 -14.5793,0.005 -27.2417,-3.80384 -37.5821,-11.30501 l -3.2719,-2.37355 -1.9538,1.86576 c -1.0745,1.02617 -2.037,1.95934 -2.1389,2.0737 -0.8601,0.96555 -6.4226,5.10684 -9.0046,6.70406 -3.2251,1.99494 -9.1789,5.13164 -9.7404,5.13164 -0.1658,0 -0.9275,0.33627 -1.6927,0.74726 -3.1963,1.71688 -12.4264,4.08776 -21.1148,5.42365 -5.5461,0.85274 -18.37442,0.84421 -24.26182,-0.0161 -13.28171,-1.94091 -25.72889,-6.50451 -34.31342,-12.5806 -2.94821,-2.08672 -4.50102,-2.97202 -4.11371,-2.34534 0.17842,0.28869 -1.99117,2.48754 -2.45444,2.48754 -0.1271,0 -0.59506,0.39272 -1.03991,0.87272 -0.44485,0.48 -0.90917,0.87273 -1.03181,0.87273 -0.12265,0 -0.86446,0.54907 -1.64847,1.22015 -0.78401,0.67109 -2.06571,1.54958 -2.84822,1.95221 -0.78251,0.40263 -2.16992,1.2435 -3.08312,1.8686 -0.91321,0.62511 -3.19103,1.90662 -5.06182,2.8478 -1.87079,0.94118 -3.47999,1.80487 -3.57599,1.91931 -0.096,0.11444 -0.62942,0.31953 -1.18538,0.45577 -0.55595,0.13624 -2.15379,0.79009 -3.55074,1.453 -3.55131,1.68524 -8.64572,3.11863 -16.73297,4.70807 -1.152,0.22641 -2.56582,0.54203 -3.14182,0.70138 -4.27072,1.1815 -19.84117,1.97215 -27.05454,1.3738 z m 28.71272,-6.52827 c -0.432,-0.0832 -1.1389,-0.0832 -1.57091,0 -0.432,0.0832 -0.0785,0.15128 0.78546,0.15128 0.864,0 1.21745,-0.0681 0.78545,-0.15128 z m 9.25091,0.006 c -0.336,-0.0878 -0.88581,-0.0878 -1.22181,0 -0.336,0.0878 -0.0611,0.15965 0.6109,0.15965 0.672,0 0.94691,-0.0718 0.61091,-0.15965 z m 5.60087,-0.40574 c 0.28926,-0.1835 0.007,-0.30334 -0.78545,-0.33312 -0.68048,-0.0256 -1.23723,0.1058 -1.23723,0.29195 0,0.41069 1.39542,0.43909 2.02268,0.0412 z M 876.92828,307.303 c -0.432,-0.0832 -1.13891,-0.0832 -1.57091,0 -0.432,0.0832 -0.0785,0.15129 0.78546,0.15129 0.864,0 1.21745,-0.0681 0.78545,-0.15129 z m -14.4,-3.59363 c 0,-0.192 -0.16636,-0.34909 -0.36969,-0.34909 -0.20333,0 -0.27261,0.15709 -0.15395,0.34909 0.11867,0.192 0.28503,0.34909 0.3697,0.34909 0.0847,0 0.15394,-0.15709 0.15394,-0.34909 z m 38.72257,-5.26617 c 2.2391,-1.26512 2.99379,-2.89921 2.99379,-6.48228 0,-1.56565 -0.11091,-2.7781 -0.24648,-2.69434 -0.13556,0.0838 -0.51301,-0.25447 -0.83878,-0.75165 -1.99007,-3.03723 -7.76181,-2.97078 -10.72632,0.1235 -1.4212,1.48342 -1.90875,3.89449 -1.26784,6.26986 0.5263,1.9506 1.0726,2.66 3.00048,3.89628 1.27744,0.81918 1.6738,0.90067 3.49091,0.71766 1.21638,-0.1225 2.6778,-0.56124 3.59424,-1.07903 z m 108.80285,-4.12627 c 3.5322,-1.60413 4.3483,-6.2409 1.5673,-8.90523 -3.2575,-3.12087 -9.15,-0.65124 -9.209,3.85963 -0.029,2.23093 0.8587,4.00873 2.468,4.94161 1.5957,0.925 3.2909,0.95907 5.1737,0.10399 z m -80.03041,-4.7608 c -0.11369,-0.29628 -0.28158,-0.46382 -0.37309,-0.37232 -0.0915,0.0915 -0.0628,0.33392 0.0637,0.5387 0.34422,0.55696 0.54541,0.44876 0.30936,-0.16638 z m -1.16774,-0.15949 c 0,-0.192 -0.16636,-0.34909 -0.36969,-0.34909 -0.20333,0 -0.27261,0.15709 -0.15394,0.34909 0.11866,0.192 0.28502,0.34909 0.36969,0.34909 0.0847,0 0.15394,-0.15709 0.15394,-0.34909 z m -11.08093,-4.09924 c 0.72148,-0.2843 2.01302,-1.29685 2.87008,-2.25011 0.92138,-1.0248 1.72206,-1.63199 1.95896,-1.48558 0.22036,0.13619 -0.55078,-1.15327 -1.71365,-2.86548 -1.16287,-1.71221 -3.23302,-5.30688 -4.60033,-7.98816 -1.36731,-2.68129 -2.40319,-4.60016 -2.30194,-4.26416 0.10125,0.336 0.0319,0.61091 -0.15405,0.61091 -0.18598,0 -0.33814,0.15181 -0.33814,0.33734 0,0.33215 -0.48838,0.92139 -4.08051,4.92316 -1.23838,1.3796 -1.98381,2.5985 -2.35636,3.85302 -0.61896,2.08425 -0.71409,4.35529 -0.19585,4.67557 0.192,0.11867 0.34909,0.50625 0.34909,0.86129 0,1.14733 2.88974,3.75574 4.58461,4.13829 1.77536,0.40071 4.11856,0.18666 5.97809,-0.54609 z m 8.1229,0.32666 c -0.10748,-0.10748 -0.38917,-2.2e-4 -0.62597,0.23835 -0.3422,0.34477 -0.3021,0.38487 0.19542,0.19542 0.34428,-0.13109 0.53803,-0.32629 0.43055,-0.43377 z m -0.95548,-1.25403 c -0.24757,-0.26863 -0.50513,-0.43618 -0.57235,-0.37232 -0.20706,0.1967 0.31772,0.86075 0.68023,0.86075 0.18824,0 0.13969,-0.21979 -0.10788,-0.48843 z m 99.69206,-1.43275 c 1.3254,-0.6289 6.2206,-5.83402 7.1825,-7.63707 0.4711,-0.883 0.4169,-1.1132 -0.8551,-3.63405 -0.747,-1.48024 -1.9396,-4.25707 -2.6503,-6.17075 -0.7107,-1.91368 -1.4648,-3.53695 -1.6757,-3.60727 -0.211,-0.0703 -0.3836,0.0166 -0.3836,0.19311 0,0.44909 -3.064,4.25013 -6.2327,7.73195 -3.6558,4.01719 -4.293,4.98024 -4.4979,6.79832 -0.2509,2.22519 0.1154,3.74079 1.2204,5.05062 1.7755,2.10469 5.0347,2.63125 7.8924,1.27514 z m -201.204,-3.14064 c 0,-0.288 -0.25487,-0.52364 -0.56638,-0.52364 -0.46387,0 -0.48773,0.0948 -0.1318,0.52364 0.23901,0.288 0.49389,0.52364 0.56638,0.52364 0.0725,0 0.1318,-0.23564 0.1318,-0.52364 z m 82.62392,-0.24 c -0.11144,-0.27848 -0.19416,-0.19576 -0.21091,0.21091 -0.0151,0.368 0.0674,0.57418 0.18335,0.45818 0.116,-0.116 0.1284,-0.41709 0.0276,-0.66909 z m -0.69473,-1.58608 c -0.0885,-0.33966 -0.16675,-0.14628 -0.17386,0.42972 -0.007,0.576 0.0653,0.8539 0.16092,0.61755 0.0956,-0.23635 0.10145,-0.70762 0.0129,-1.04727 z m 7.18652,-16.16595 c -0.10241,-0.39161 -0.2642,-0.63402 -0.35954,-0.53869 -0.18885,0.18886 0.14473,1.25072 0.39292,1.25072 0.084,0 0.069,-0.32041 -0.0334,-0.71203 z m -3.70633,-19.27342 c -0.0968,-0.24 -0.17608,-0.0436 -0.17608,0.43636 0,0.48 0.0792,0.67636 0.17608,0.43636 0.0968,-0.24 0.0968,-0.63272 0,-0.87272 z m -0.32037,-11.34546 c -0.064,-1.68 -0.11635,-0.30545 -0.11635,3.05455 0,3.36 0.0524,4.73454 0.11635,3.05454 0.064,-1.68 0.064,-4.42909 0,-6.10909 z M 795.38493,235.2 c -0.0968,-0.24 -0.17608,-0.0436 -0.17608,0.43636 0,0.48 0.0792,0.67636 0.17608,0.43636 0.0968,-0.24 0.0968,-0.63272 0,-0.87272 z m 112.41455,-12.54546 c -0.11144,-0.27848 -0.19416,-0.19576 -0.21091,0.21091 -0.0152,0.368 0.0674,0.57418 0.18335,0.45818 0.116,-0.116 0.1284,-0.41709 0.0276,-0.66909 z m 1.39636,-0.69818 c -0.11144,-0.27848 -0.19416,-0.19576 -0.21091,0.21091 -0.0152,0.368 0.0673,0.57418 0.18335,0.45818 0.116,-0.116 0.1284,-0.41709 0.0276,-0.66909 z m 0.42983,-2.02909 c -0.0127,-0.34527 -0.12138,-0.28581 -0.31921,0.17455 -0.41239,0.95968 -0.41239,1.51085 0,0.87272 0.18612,-0.288 0.32977,-0.75927 0.31921,-1.04727 z m 1.66816,-10.02972 c -0.0885,-0.33965 -0.16674,-0.14628 -0.17386,0.42972 -0.007,0.576 0.0653,0.8539 0.16093,0.61755 0.0956,-0.23634 0.10144,-0.70762 0.0129,-1.04727 z m 1.03656,-5.06846 c -0.0969,-0.24 -0.17608,-0.0436 -0.17608,0.43636 0,0.48 0.0792,0.67637 0.17608,0.43637 0.0968,-0.24 0.0968,-0.63273 0,-0.87273 z m -1.91785,-0.69174 c -0.25905,-0.25905 -0.30448,-0.12276 -0.15264,0.4579 0.12345,0.47205 0.28169,0.63029 0.36884,0.36884 0.084,-0.25185 -0.0133,-0.62388 -0.2162,-0.82674 z m 4.94339,-8.61735 c -0.24857,-0.31461 -0.50136,0.29558 -0.65696,1.58584 l -0.16309,1.35234 0.46749,-1.39636 c 0.25712,-0.768 0.41577,-1.46182 0.35256,-1.54182 z m -0.92373,-0.79273 c -0.11143,-0.27848 -0.19415,-0.19576 -0.2109,0.21091 -0.0152,0.368 0.0673,0.57418 0.18334,0.45818 0.116,-0.116 0.12841,-0.41709 0.0276,-0.66909 z m -129.02505,-5.78182 c -0.29029,-0.4984 -0.35582,-0.38588 -0.35582,0.61091 0,0.9968 0.0655,1.10931 0.35582,0.61091 0.2417,-0.41498 0.2417,-0.80684 0,-1.22182 z m 132.51596,-0.50182 c -0.11144,-0.27848 -0.19415,-0.19576 -0.21091,0.21091 -0.0152,0.368 0.0673,0.57419 0.18335,0.45819 0.116,-0.116 0.12841,-0.4171 0.0276,-0.6691 z m 1.43957,-3.26014 c -0.10748,-0.10748 -0.30268,0.0863 -0.43377,0.43054 -0.18945,0.49753 -0.14935,0.53762 0.19542,0.19542 0.23857,-0.2368 0.34583,-0.51848 0.23835,-0.62596 z m 2.86015,-6.49015 c 0,-0.192 -0.15709,-0.252 -0.34909,-0.13334 -0.192,0.11866 -0.3491,0.37284 -0.3491,0.56484 0,0.192 0.1571,0.252 0.3491,0.13334 0.192,-0.11866 0.34909,-0.37284 0.34909,-0.56484 z m 1.32227,-3.49743 c -0.0872,-0.26145 -0.24539,-0.10321 -0.36883,0.36883 -0.15185,0.58066 -0.10642,0.71696 0.15263,0.45791 0.20286,-0.20286 0.30015,-0.57489 0.2162,-0.82674 z M 956.18682,170.79 c 1.37775,-1.30916 1.80513,-2.24461 2.51073,-5.49546 1.44734,-6.66816 2.8333,-11.9974 4.90995,-18.87958 3.27361,-10.84902 9.11264,-28.00147 12.73156,-37.39967 0.56561,-1.46887 0.96762,-2.73144 0.89336,-2.8057 -0.1917,-0.1917 -1.99718,2.46346 -5.51797,8.11481 -1.67561,2.68958 -3.21344,5.08651 -3.4174,5.32651 -0.20396,0.24 -0.2977,0.43636 -0.2083,0.43636 0.0894,0 -1.41696,2.70982 -3.34746,6.02182 -7.56997,12.98718 -11.90709,21.3711 -15.03409,29.06182 -4.09113,10.06195 -4.30468,11.81035 -1.81956,14.89726 1.98933,2.47107 6.08356,2.82717 8.29918,0.72183 z m -28.41253,-4.07491 c -0.0918,-0.0918 -0.37496,0.17933 -0.62915,0.6026 -0.44157,0.7353 -0.43413,0.74273 0.16699,0.16698 0.34602,-0.33143 0.554,-0.67774 0.46216,-0.76958 z m 0.66475,-1.42978 c -0.10748,-0.10748 -0.30267,0.0863 -0.43377,0.43054 -0.18945,0.49753 -0.14935,0.53762 0.19542,0.19542 0.23858,-0.2368 0.34583,-0.51848 0.23835,-0.62596 z m 1.59698,-3.15072 c 0.11922,-0.31066 0.0607,-0.45078 -0.13719,-0.32848 -0.1898,0.1173 -0.34509,0.36109 -0.34509,0.54176 0,0.50215 0.25021,0.3915 0.48228,-0.21328 z m -96.93085,-10.84431 c 2.64451,-0.89333 4.67767,-3.5945 5.16832,-6.8664 0.13644,-0.90986 0.38961,-1.74175 0.56258,-1.84866 0.17298,-0.10691 0.25067,-0.30134 0.17264,-0.43207 -0.14451,-0.24212 0.0526,-1.47151 0.9335,-5.82315 0.27207,-1.344 1.5414,-6.05673 2.82073,-10.47273 2.18815,-7.55308 2.55151,-8.73933 3.20792,-10.47273 0.32384,-0.85516 0.30193,-0.77825 0.64653,-2.26909 0.15533,-0.672 0.40448,-1.37891 0.55367,-1.57091 0.14918,-0.192 0.54098,-1.37018 0.87066,-2.61818 0.32969,-1.248 0.81785,-2.7641 1.08481,-3.36912 0.26696,-0.60502 0.48539,-1.26732 0.48539,-1.47179 0,-0.20447 0.22725,-0.88764 0.505,-1.51815 0.27775,-0.63052 0.97225,-2.638756 1.54334,-4.462756 0.57108,-1.824 1.6791,-5.11763 2.46227,-7.31917 0.78316,-2.20154 1.42393,-4.05663 1.42393,-4.12242 0,-0.0658 0.15529,-0.0236 0.34509,0.0937 0.20098,0.12421 0.2545,-0.0228 0.12816,-0.35204 -0.11931,-0.31092 -0.0445,-0.90817 0.16626,-1.32722 0.39111,-0.77764 1.10036,-2.70323 2.89113,-7.84933 0.55472,-1.59408 1.24398,-3.35356 1.5317,-3.90994 0.28771,-0.55638 0.52312,-1.17649 0.52312,-1.37803 0,-0.51849 -0.97261,-0.45716 -1.10895,0.0699 -0.24755,0.95706 -4.90282,7.58621 -5.19887,7.40324 -0.1743,-0.10772 -0.23607,0.0148 -0.13726,0.27231 0.0988,0.25749 -0.272,1.16892 -0.82403,2.0254 -1.42481,2.21063 -4.25089,6.96338 -4.25089,7.14892 0,0.27461 -2.87231,4.87412 -3.15931,5.05908 -0.15193,0.0979 -0.38428,0.60847 -0.51632,1.13455 -0.13203,0.52608 -0.38012,0.9565 -0.55131,0.9565 -0.17118,0 -0.31125,0.16751 -0.31125,0.37224 0,0.20473 -1.0216,2.1038 -2.27023,4.220146 -1.24863,2.11636 -2.3653,4.22667 -2.48148,4.68958 -0.11619,0.46292 -0.34088,0.84167 -0.49932,0.84167 -0.15844,0 -1.42903,2.16 -2.82353,4.8 -1.3945,2.64 -2.81331,5.09869 -3.15292,5.46377 -0.3396,0.36508 -0.53764,0.79294 -0.44007,0.9508 0.0976,0.15787 -0.4429,1.50862 -1.20102,3.00168 -0.75813,1.49306 -1.76445,3.57865 -2.23627,4.63465 -0.47182,1.056 -1.19353,2.66447 -1.60378,3.57438 -0.41026,0.90991 -0.74592,1.73635 -0.74592,1.83653 0,0.10019 -0.29523,0.84808 -0.65606,1.66199 -3.14083,7.0846 -4.17716,11.78367 -3.22005,14.60078 0.92974,2.73656 3.52136,4.53562 7.44209,5.16618 0.13729,0.0221 1.00129,-0.21378 1.92,-0.52412 z m 9.06521,-18.00301 c -0.11143,-0.27848 -0.19415,-0.19576 -0.2109,0.21091 -0.0152,0.368 0.0674,0.57418 0.18335,0.45818 0.116,-0.116 0.1284,-0.41709 0.0276,-0.66909 z m -1.74545,-30.37091 c -0.11144,-0.27848 -0.19416,-0.19576 -0.21091,0.21091 -0.0152,0.368 0.0674,0.57418 0.18335,0.45818 0.116,-0.116 0.1284,-0.41709 0.0276,-0.66909 z m 21.99273,-27.927266 c -0.11144,-0.27849 -0.19416,-0.19577 -0.21091,0.2109 -0.0152,0.368 0.0673,0.57419 0.18335,0.45819 0.116,-0.116 0.1284,-0.41709 0.0276,-0.66909 z m -5.23637,-2.09455 c -0.11143,-0.27848 -0.19415,-0.19576 -0.2109,0.21091 -0.0152,0.368 0.0673,0.57418 0.18334,0.45818 0.116,-0.116 0.12841,-0.41709 0.0276,-0.66909 z m 34.71394,-8.05673 c -0.34476,-0.3422 -0.38486,-0.3021 -0.19541,0.19542 0.13109,0.34428 0.32629,0.53803 0.43377,0.43055 0.10748,-0.10748 2.2e-4,-0.38917 -0.23836,-0.62597 z M 509.41976,264.34909 c 0.26562,-0.912 1.60344,-5.82109 2.97294,-10.90909 1.36949,-5.088 3.59735,-13.25673 4.9508,-18.15273 1.35344,-4.896 2.65953,-9.68727 2.90242,-10.64727 0.24289,-0.96 1.49992,-5.67273 2.7934,-10.47273 1.29348,-4.8 2.50893,-9.31636 2.70101,-10.03636 l 0.34923,-1.30909 h 8.66017 8.66017 l -0.67354,2.35525 c -0.37045,1.29539 -0.67354,2.40837 -0.67354,2.4733 0,0.0649 0.73773,-0.53132 1.63941,-1.32501 0.90167,-0.79369 2.97129,-2.10304 4.59914,-2.90967 l 2.95972,-1.4666 h 4.38996 c 4.22609,0 4.49419,0.0447 7.18268,1.19875 2.18336,0.9372 3.22359,1.64833 4.76736,3.25911 4.53802,4.73502 6.24901,10.39659 5.54982,18.36414 -0.69336,7.90122 -3.16914,13.82741 -7.9664,19.06891 -5.49047,5.9989 -11.48799,8.90182 -18.39146,8.90182 -5.29873,0 -8.99424,-1.5066 -12.58746,-5.13169 l -2.14538,-2.1644 -2.51431,9.49531 c -1.38288,5.22243 -2.60661,9.84878 -2.71942,10.28078 l -0.20509,0.78545 h -8.84229 -8.84228 z m 38.81687,-27.01704 c 4.93972,-2.32895 7.65034,-7.21697 7.38776,-13.32226 -0.16106,-3.74516 -0.92982,-5.26516 -3.42591,-6.7738 -2.63899,-1.595 -4.49318,-1.79445 -7.41972,-0.79811 -3.41796,1.16363 -5.98683,3.36328 -7.66349,6.562 -1.27089,2.4246 -1.33609,2.70776 -1.33609,5.80338 0,4.73593 1.01219,7.11134 3.60486,8.45994 2.44689,1.27277 6.23655,1.30224 8.85259,0.0688 z m -227.48881,15.20757 c -8.55549,-1.55977 -14.82388,-5.18652 -19.32115,-11.17879 -3.61814,-4.8209 -4.77476,-8.79293 -4.77476,-16.39729 0,-14.27884 6.74964,-25.35069 20.0377,-32.86906 5.73083,-3.2425 11.00879,-4.63322 18.53684,-4.88437 4.79616,-0.16001 6.15276,-0.0791 9.6,0.57274 4.8127,0.90999 6.05216,1.34155 10.82182,3.76795 3.33261,1.69536 4.97546,2.92006 7.25471,5.40823 l 0.79652,0.86953 -5.387,5.31926 c -6.88858,6.80197 -6.50032,6.53883 -7.73958,5.24532 -0.54293,-0.56669 -2.05269,-1.67416 -3.35504,-2.46105 -9.6231,-5.81437 -22.54281,-3.05196 -28.89941,6.17907 -1.91411,2.77966 -3.53361,7.4905 -3.7723,10.97292 -0.42094,6.14142 2.56252,11.11303 8.22999,13.71437 2.28543,1.04901 9.8161,1.07357 12.40845,0.0405 l 1.70361,-0.67892 0.99949,-3.14182 c 0.54972,-1.728 1.09658,-3.65236 1.21524,-4.27636 l 0.21575,-1.13455 h -5.83955 -5.83954 l 0.17027,-0.78545 c 0.0937,-0.432 0.77128,-3.33819 1.50584,-6.45819 l 1.33556,-5.67272 h 14.5684 14.5684 l -0.67658,2.35636 c -0.37212,1.296 -2.25434,7.93309 -4.18272,14.74909 -1.92837,6.816 -3.69428,12.94255 -3.92423,13.61455 -0.3658,1.06899 -0.8329,1.42931 -3.73446,2.88073 -8.04487,4.0242 -18.53438,5.70427 -26.52227,4.24798 z m 99.91884,-0.16364 c -4.32081,-0.76994 -9.6483,-3.62686 -12.51706,-6.71239 -4.12216,-4.43365 -5.97846,-9.98449 -5.57852,-16.68136 0.64285,-10.76432 6.40832,-19.63388 15.73901,-24.21276 5.1565,-2.53047 6.50214,-2.82038 13.09091,-2.82038 5.39394,0 5.94031,0.0619 8.5972,0.97441 9.60552,3.29894 15.14098,11.05613 15.14098,21.21799 0,5.6327 -1.11851,9.67804 -4.05097,14.65119 -3.70458,6.28259 -9.87086,11.13354 -16.43236,12.92717 -3.10689,0.84929 -10.86359,1.2131 -13.98919,0.65613 z m 10.47218,-14.57337 c 2.04406,-0.90835 3.65697,-2.34596 4.9625,-4.42318 1.87417,-2.98195 2.45479,-4.92466 2.45544,-8.2158 9.4e-4,-4.74817 -1.75382,-7.61172 -5.46724,-8.9219 -1.955,-0.68976 -3.263,-0.6334 -5.89014,0.25379 -8.06692,2.72425 -11.16233,16.06006 -4.78223,20.6031 2.43985,1.73732 5.78816,2.00759 8.72167,0.70399 z m 38.7425,14.39798 c -5.18015,-1.39463 -8.1458,-4.58458 -9.17644,-9.87048 -0.59418,-3.04744 -0.22388,-9.33141 0.72359,-12.2792 0.40113,-1.248 1.41819,-4.93964 2.26014,-8.20364 0.84195,-3.264 2.26014,-8.76218 3.15155,-12.21818 0.8914,-3.456 1.72814,-6.39585 1.85941,-6.533 0.13128,-0.13715 4.04987,-0.29424 8.708,-0.34909 l 8.46931,-0.0997 -0.22755,1.04727 c -0.12515,0.576 -1.79102,6.93818 -3.70193,14.13818 -3.91289,14.74315 -4.05093,15.8689 -2.18459,17.81693 2.70819,2.82674 8.36403,1.9398 10.65375,-1.67071 1.40485,-2.21523 2.1292,-4.26548 3.93555,-11.13952 0.84975,-3.23368 2.389,-9.05972 3.42057,-12.94674 l 1.87557,-7.06732 8.83807,-0.002 c 8.25284,-0.002 8.82627,0.0387 8.65987,0.60913 -0.33726,1.15617 -8.24552,30.29604 -10.63453,39.18546 l -2.39233,8.90182 -8.60645,0.0934 c -4.73354,0.0513 -8.60085,-0.0272 -8.59401,-0.17455 0.007,-0.14735 0.23592,-1.20393 0.50906,-2.34794 0.27315,-1.14402 0.44114,-2.13552 0.37332,-2.20334 -0.0678,-0.0678 -0.65036,0.33051 -1.29452,0.88517 -5.09708,4.38894 -10.96508,5.95178 -16.62541,4.42788 z m 199.94876,-0.0672 c -6.41834,-1.74803 -8.95338,-5.23504 -8.65505,-11.90523 0.1269,-2.83718 0.55103,-4.80485 2.68277,-12.4463 1.39262,-4.992 2.66956,-9.50837 2.83763,-10.03637 l 0.3056,-0.96 h -2.98983 c -2.92688,0 -2.98563,-0.0165 -2.79057,-0.78545 0.1096,-0.432 0.95134,-3.57382 1.87054,-6.98182 l 1.67127,-6.19636 h 2.80276 2.80276 l 1.73121,-6.28364 1.7312,-6.28364 h 8.68447 c 7.65712,0 8.6602,0.0633 8.47923,0.53486 -0.11288,0.29418 -0.45715,1.51163 -0.76504,2.70546 -0.49797,1.93084 -1.94732,7.07985 -2.45341,8.71605 -0.17473,0.5649 0.24831,0.61091 5.61809,0.61091 5.36794,0 5.79313,0.0462 5.62292,0.6109 -0.10128,0.336 -0.90601,3.20291 -1.7883,6.37091 -0.88229,3.168 -1.6846,6.03491 -1.78291,6.37091 -0.16055,0.54869 -0.74373,0.61091 -5.7259,0.61091 h -5.54715 l -0.69223,2.35637 c -1.76057,5.99304 -3.87552,14.37996 -3.87552,15.36852 0,0.60124 0.18269,1.49413 0.40597,1.98418 0.7545,1.65594 4.06944,1.92555 7.91804,0.64401 0.83421,-0.27778 1.5811,-0.4407 1.65976,-0.36204 0.0787,0.0787 8.5e-4,0.60049 -0.17292,1.15963 -0.17376,0.55913 -0.89666,3.21588 -1.60646,5.90388 -2.0435,7.73879 -1.65605,7.00069 -4.12114,7.85101 -3.11075,1.07305 -10.65749,1.31394 -13.85779,0.44234 z m 41.53779,0.24706 c -6.7504,-1.60397 -11.57342,-6.98996 -13.11118,-14.64164 -0.75399,-3.75175 -0.52041,-9.75582 0.53677,-13.79695 1.16785,-4.46423 4.44126,-10.70559 7.19474,-13.71812 3.6696,-4.01482 9.03176,-7.1994 13.64968,-8.1065 2.74004,-0.53824 8.76856,-0.27485 11.16226,0.48768 2.23561,0.71217 5.70269,3.227 7.09088,5.14333 0.66892,0.92342 1.10276,1.27196 1.20122,0.965 0.0848,-0.26426 1.47547,-5.50739 3.09047,-11.65139 l 2.93635,-11.17091 8.64945,-0.0935 8.64945,-0.0935 -0.23638,0.96619 c -0.13,0.5314 -2.49448,9.44909 -5.25439,19.81709 -2.75991,10.368 -5.81172,21.91418 -6.78179,25.65818 -0.97007,3.744 -2.51918,9.63491 -3.44248,13.09091 l -1.67871,6.28364 -8.62252,0.0934 c -4.74239,0.0513 -8.62252,-0.0415 -8.62252,-0.20634 0,-0.16484 0.23393,-1.07086 0.51985,-2.01337 0.28593,-0.94251 0.52156,-1.83657 0.52364,-1.98679 0.002,-0.15022 -0.82095,0.34301 -1.82895,1.09607 -4.76131,3.55708 -10.73533,5.0395 -15.62584,3.87747 z m 16.61702,-15.14753 c 2.15934,-0.98248 5.0913,-3.93785 6.25927,-6.30925 1.73387,-3.5204 1.95598,-7.82629 0.54623,-10.58963 -1.35552,-2.65705 -4.69619,-4.59582 -7.91899,-4.59582 -1.8962,0 -6.84039,2.47099 -8.0085,4.00245 -1.29173,1.69355 -2.91325,5.42981 -3.32635,7.66446 -0.67516,3.65228 0.4387,7.83351 2.47263,9.28179 2.54971,1.81555 6.68766,2.04204 9.97571,0.546 z m -368.84573,14.28665 c 0,-0.10296 1.11751,-4.38643 2.48335,-9.51882 1.36584,-5.13239 3.96349,-14.9662 5.77255,-21.85291 1.80906,-6.88671 3.5745,-13.56308 3.92321,-14.83637 l 0.634,-2.31507 8.60436,-0.0934 c 4.73239,-0.0513 8.60091,0.0272 8.59671,0.17455 -0.004,0.14735 -0.46717,2.06968 -1.02881,4.27183 -0.56164,2.20215 -0.9762,4.04888 -0.92124,4.10384 0.0549,0.055 0.82591,-0.80426 1.71322,-1.90937 0.88732,-1.10511 1.94873,-2.29555 2.35869,-2.64542 1.9884,-1.69693 5.41076,-3.7581 7.0465,-4.24386 2.43629,-0.7235 6.54837,-1.1022 6.54837,-0.60308 0,0.37253 -2.8786,10.95052 -4.22331,15.51943 l -0.69353,2.35636 h -1.71349 c -5.52316,0 -10.75143,2.8332 -14.03485,7.60548 -2.13423,3.10199 -3.38094,6.76393 -6.85916,20.14725 l -0.99798,3.84 -8.60429,0.0934 c -4.73237,0.0513 -8.6043,0.009 -8.6043,-0.0938 z m 240.61399,-0.43348 c 0.77095,-2.73247 6.69608,-24.57372 14.04022,-51.75514 l 2.87678,-10.64728 8.77633,-0.0933 c 4.82698,-0.0513 8.77632,0.0112 8.77632,0.13893 0,0.24434 -1.51546,5.87192 -5.62814,20.89979 -3.61829,13.22135 -6.93039,25.76715 -6.93507,26.26909 -0.003,0.34239 3.22868,0.43636 15.00685,0.43636 8.256,0 15.01091,0.0679 15.01091,0.15084 0,0.19727 -2.5902,9.84387 -3.42766,12.76553 l -0.65041,2.26909 -24.00959,0.0897 c -22.75955,0.085 -24.00057,0.0578 -23.83654,-0.52364 z m -396.4695,-75.88163 c -6.85499,-0.9987 -12.19811,-4.1918 -16.42627,-9.81648 -3.95786,-5.26512 -5.51106,-10.78824 -5.52383,-19.64249 -0.01,-6.5998 0.56202,-10.20898 2.61859,-16.53576 2.48024,-7.63021 5.64487,-12.72593 11.63423,-18.73359 6.20673,-6.22568 15.7868,-10.28701 24.26552,-10.28701 3.16694,0 7.95397,0.86926 10.51271,1.90898 3.71382,1.50905 9.01944,5.9243 10.18584,8.47647 0.69961,1.5308 0.19334,3.06948 5.65694,-17.192726 1.6567,-6.144 3.3411,-12.38836 3.74311,-13.87636 l 0.73093,-2.70546 h 12.51251 c 10.61889,0 12.5125,0.0756 12.5125,0.49934 0,0.27464 -1.50334,6.12627 -3.34076,13.00364 -1.83742,6.87736 -3.9679,14.860666 -4.73441,17.740666 -0.76651,2.88 -2.10348,7.82836 -2.97105,10.99636 -0.86757,3.168 -2.96646,11.02254 -4.66419,17.45454 -1.69773,6.432 -3.40307,12.87273 -3.78965,14.31273 -0.38658,1.44 -1.89271,7.07373 -3.34697,12.5194 -1.45425,5.44567 -2.72676,10.03496 -2.82778,10.19843 -0.10103,0.16346 -5.79389,0.26355 -12.6508,0.22242 -10.85907,-0.0652 -12.45621,-0.14233 -12.38257,-0.59843 0.0465,-0.288 0.4661,-1.90713 0.93246,-3.59807 0.83239,-3.01815 0.75331,-3.33409 -0.49337,-1.9711 -0.096,0.10495 -1.13104,0.91938 -2.3001,1.80983 -3.86596,2.94466 -9.38464,5.23007 -14.10717,5.8421 -2.96405,0.38414 -2.91992,0.38435 -5.74642,-0.0274 z m 18.48824,-21.27221 c 3.50946,-0.91 7.30289,-3.18481 9.4098,-5.6428 1.70249,-1.98616 4.21728,-7.06384 4.73603,-9.56261 0.2289,-1.10261 0.35747,-3.58917 0.28576,-5.52641 -0.11056,-2.98682 -0.27857,-3.82479 -1.10589,-5.51578 -2.28503,-4.67043 -7.48534,-7.05404 -13.52192,-6.1979 -6.80153,0.96463 -12.83756,7.37163 -14.46775,15.35692 -0.79344,3.88657 -0.58244,8.22851 0.51261,10.54826 0.96058,2.03491 3.21984,4.64531 4.6786,5.40576 2.75895,1.43824 6.55033,1.89234 9.47276,1.13456 z m 274.21091,21.42193 c -4.25649,-0.3895 -8.42367,-1.86466 -12.3071,-4.35665 -2.51474,-1.61371 -6.29426,-6.22779 -8.10285,-9.89204 -2.27015,-4.59941 -2.8059,-7.60658 -2.7987,-15.70909 0.007,-7.52104 0.37986,-9.87549 2.64432,-16.68384 2.31078,-6.94761 4.81138,-11.10679 10.02624,-16.67633 5.93317,-6.33671 11.65552,-9.57815 19.789,-11.20956 6.32808,-1.269286 13.48213,-0.39226 18.49372,2.26718 2.30752,1.2245 6.16602,4.67347 7.69223,6.87579 0.54001,0.77924 1.09265,1.29303 1.22808,1.14178 0.13543,-0.15126 0.58348,-1.61029 0.99567,-3.24229 0.41219,-1.632 2.44973,-9.250906 4.52787,-16.930906 l 3.77843,-13.96364 12.62382,-0.0916 c 6.9431,-0.0504 12.62382,-1.7e-4 12.62382,0.11161 0,0.11178 -2.05457,7.85047 -4.56572,17.19708 -6.04715,22.507866 -8.72205,32.537136 -14.63436,54.870206 -2.71934,10.272 -5.15839,19.38327 -5.42011,20.24727 -0.26172,0.864 -0.64766,2.23854 -0.85765,3.05454 l -0.3818,1.48364 h -12.35867 c -7.53382,0 -12.43967,-0.13106 -12.56614,-0.3357 -0.11411,-0.18463 0.1908,-1.70947 0.67758,-3.38854 0.48677,-1.67907 0.88505,-3.18834 0.88505,-3.35394 0,-0.1656 -1.14532,0.64628 -2.54514,1.80418 -2.83164,2.34225 -8.5567,5.25992 -11.94214,6.08608 -2.3046,0.5624 -5.60921,0.86831 -7.50545,0.69479 z m 18.22841,-21.74899 c 7.38476,-2.28092 12.67925,-9.4388 13.4032,-18.12046 0.24482,-2.93594 -0.25115,-6.07237 -1.28092,-8.1003 -0.95529,-1.88128 -4.22928,-4.70534 -6.17212,-5.32394 -4.11113,-1.30897 -8.67942,-0.98976 -11.86395,0.82899 -5.85286,3.34271 -9.73482,9.83275 -10.44373,17.46031 -0.466,5.01398 1.48208,9.37044 5.45531,12.19963 2.51568,1.79131 7.08741,2.23404 10.90221,1.05577 z M 640.681,175.23144 c -11.23689,-0.9434 -20.44566,-5.154 -28.36963,-12.97168 -10.62672,-10.48417 -13.70683,-27.53096 -8.23551,-45.57918 1.96574,-6.48437 5.61567,-12.77645 10.93496,-18.850666 7.78084,-8.88513 18.86547,-15.21575 30.82704,-17.60584 5.16594,-1.03223 15.4883,-1.11572 20.27067,-0.16395 5.68257,1.13092 12.97537,4.01695 16.93011,6.69987 2.67643,1.81571 7.8821,6.72367 9.71766,9.16194 3.04057,4.03891 5.65576,10.066056 6.92585,15.961746 0.77837,3.61318 1.04677,10.95872 0.54583,14.93849 -1.60185,12.72618 -6.23595,22.58573 -14.86334,31.6234 -11.54072,12.08954 -27.8127,18.20228 -44.68364,16.78587 z m 12.45638,-23.71436 c 4.81246,-1.21283 9.82357,-4.19465 12.91728,-7.68633 3.76916,-4.25401 7.03803,-11.53229 7.99847,-17.80889 0.8171,-5.33993 -0.41519,-11.26921 -3.25041,-15.63967 -2.31413,-3.56719 -5.87923,-6.07957 -10.23804,-7.2149 -2.44459,-0.63673 -9.37842,-0.71877 -12.09922,-0.14315 -4.3752,0.92562 -8.43629,3.51147 -12.72205,8.10063 -6.1195,6.5527 -9.36519,17.35043 -7.67039,25.51776 1.58267,7.62694 6.80401,13.33566 13.73237,15.01421 3.00281,0.7275 8.1425,0.66415 11.33199,-0.13966 z m -329.8191,23.35967 c -4.89892,-0.6392 -8.3156,-2.20536 -11.51644,-5.27896 -4.7816,-4.59152 -6.59536,-11.2044 -5.08401,-18.53595 2.5706,-12.4699 12.07633,-19.45268 28.15953,-20.68561 5.04809,-0.38699 15.05619,0.80686 20.60883,2.45838 0.82952,0.24673 0.82846,0.25087 1.0781,-4.19824 0.17275,-3.07857 0.15381,-3.1768 -0.89012,-4.61791 -1.53649,-2.12105 -3.80812,-3.15978 -7.82005,-3.5758 -5.78164,-0.59952 -13.25569,0.42087 -21.723,2.96573 -0.67804,0.20378 -0.81788,-0.2553 -2.56465,-8.41943 -1.01613,-4.74923 -1.92141,-8.82754 -2.01172,-9.06291 -0.29218,-0.7614 5.85005,-2.36799 15.41716,-4.03259 5.98909,-1.04205 18.4256,-1.15204 23.42346,-0.20715 10.46436,1.97837 17.28573,6.76043 20.00296,14.02289 1.7342,4.63505 1.55429,12.00902 -0.48581,19.91266 -3.39082,13.13647 -9.67172,36.74458 -9.96204,37.44447 l -0.32768,0.78992 -12.3109,-0.0917 c -10.71395,-0.0798 -12.29993,-0.15967 -12.22636,-0.61538 0.0465,-0.288 0.46368,-1.89829 0.92706,-3.57842 0.50361,-1.82603 0.68024,-2.95775 0.43909,-2.81354 -0.22188,0.13269 -1.34619,0.95753 -2.49847,1.83297 -5.25976,3.99612 -9.13743,5.69499 -14.36605,6.29402 -3.3911,0.38851 -3.23306,0.3887 -6.26889,-0.007 z m 18.04118,-15.90517 c 3.47945,-1.03315 7.12486,-4.02212 9.17772,-7.52506 0.84519,-1.44221 2.66746,-6.13077 2.66746,-6.86317 0,-0.16639 -1.62984,-0.66021 -3.62185,-1.09738 -5.19709,-1.14054 -9.24564,-0.939 -12.58958,0.62674 -2.88911,1.35277 -4.78957,3.23297 -5.56343,5.50412 -2.32168,6.81374 2.66513,11.5118 9.92968,9.35475 z M 21.219174,173.4448 c 0,-0.22136 2.216244,-8.50791 4.924988,-18.41455 2.708744,-9.90664 6.574589,-24.13862 8.590768,-31.62662 2.016179,-7.48799 5.418001,-20.05527 7.559605,-27.927266 l 3.893825,-14.31273 12.950751,-0.0915 12.950752,-0.0915 0.910152,2.53511 c 1.21436,3.38244 6.336458,18.256726 9.049692,26.279806 1.199207,3.54607 2.286034,6.44836 2.41517,6.44953 0.129137,0.001 2.171319,-2.23248 4.538182,-4.96368 2.366869,-2.73119 5.026599,-5.75519 5.910519,-6.72 2.36648,-2.58303 9.893442,-11.106396 15.672872,-17.747626 l 5.06182,-5.81661 14.59807,-0.004 c 13.7382,-0.004 14.58772,0.0319 14.42242,0.60685 -0.0966,0.336 -0.88476,3.28145 -1.75145,6.54545 -0.86669,3.264 -1.80719,6.79855 -2.09002,7.85455 -0.28282,1.056 -1.14276,4.276356 -1.91097,7.156356 -0.76821,2.88 -2.44254,9.08509 -3.72073,13.78909 -1.27819,4.704 -3.55708,13.18691 -5.06418,18.85091 -1.50711,5.664 -4.25004,15.95346 -6.0954,22.86546 -1.84536,6.912 -3.51176,13.15636 -3.70311,13.87636 l -0.34791,1.30909 h -12.9029 c -10.093062,0 -12.901502,-0.095 -12.896432,-0.43636 0.004,-0.24 0.71084,-3.10691 1.57171,-6.37091 0.86088,-3.264 2.26916,-8.60509 3.12952,-11.86909 0.86035,-3.264 2.254512,-8.52655 3.098112,-11.69455 4.38164,-16.45439 5.80745,-21.91705 5.79498,-22.20215 -0.015,-0.34184 -0.89782,0.59089 -11.330082,11.97015 -3.8391,4.1876 -7.419795,8.08509 -7.957093,8.66109 -0.537299,0.576 -3.833548,4.14536 -7.324998,7.93191 -3.49145,3.78655 -6.455845,6.77128 -6.587543,6.63273 -0.131699,-0.13855 -3.098379,-7.87082 -6.592624,-17.18282 -3.494245,-9.312 -6.518579,-17.24435 -6.720743,-17.62744 -0.315288,-0.59746 -0.461245,-0.34919 -1.026145,1.74546 -0.362215,1.34309 -0.885923,3.22744 -1.163795,4.18744 -0.277872,0.96 -1.062258,3.86618 -1.743079,6.45818 -0.680822,2.592 -1.619486,6.12654 -2.08592,7.85454 -0.825105,3.05677 -7.383529,27.48875 -8.176074,30.45818 l -0.395985,1.48364 H 33.947536 c -9.378335,0 -12.728362,-0.10593 -12.728362,-0.40247 z m 114.391746,0.14065 c -0.15222,-0.26344 0.24863,-1.79268 7.66362,-29.23636 2.23069,-8.256 4.57106,-16.97455 5.20083,-19.37455 0.62977,-2.4 2.11168,-7.97672 3.29312,-12.39272 1.18144,-4.416 2.30159,-8.61818 2.4892,-9.33818 l 0.34113,-1.3091 h 12.55381 c 9.90164,0 12.55382,0.0935 12.55382,0.4424 0,0.24332 -1.26481,5.07386 -2.81069,10.73455 -1.54588,5.66068 -3.49856,12.88414 -4.3393,16.05214 -0.84074,3.168 -2.86233,10.78691 -4.49243,16.93091 -4.82107,18.17106 -7.26732,27.21213 -7.43826,27.49091 -0.0883,0.144 -5.71871,0.26182 -12.51205,0.26182 -6.79333,0 -12.4196,-0.11782 -12.5028,-0.26182 z m 128.82341,0.0102 c -0.0853,-0.14963 1.23706,-5.45606 2.93857,-11.79206 1.70151,-6.336 3.57642,-13.32654 4.16647,-15.53454 0.59005,-2.208 1.28596,-4.8 1.54646,-5.76 2.10106,-7.74287 2.89507,-10.70401 5.3824,-20.07273 6.936,-26.124996 10.93212,-41.116736 11.28253,-42.327266 l 0.37893,-1.3091 h 12.51202 c 9.56176,0 12.51202,0.0997 12.51202,0.42274 0,0.50112 -2.22279,8.92517 -8.54697,32.391806 -2.56129,9.504 -5.62998,20.97164 -6.8193,25.48364 -3.25911,12.36429 -6.54501,24.72526 -7.14548,26.88 -0.29428,1.056 -1.12707,4.11927 -1.85064,6.80727 l -1.31558,4.88728 -12.44318,0.0975 c -6.84375,0.0536 -12.51296,-0.0249 -12.59825,-0.17454 z m 118.09394,-0.0597 c 0,-0.33056 2.52832,-9.79539 8.54265,-31.97963 2.03006,-7.488 4.62794,-17.14909 5.77308,-21.46909 1.14513,-4.32 2.68754,-10.13236 3.42758,-12.91636 l 1.34552,-5.06182 12.62286,-0.0916 c 6.94257,-0.0504 12.61991,0.0281 12.61631,0.17455 -0.004,0.14639 -0.39632,1.75024 -0.87272,3.5641 -0.4764,1.81386 -0.86619,3.44405 -0.86619,3.62264 0,0.17859 0.66764,-0.28904 1.48364,-1.03919 7.24862,-6.66362 15.14165,-9.223236 23.53293,-7.63142 4.19608,0.79598 7.2255,2.46262 10.23491,5.63075 4.09837,4.31452 5.412,8.00729 5.38743,15.14474 -0.0194,5.64436 -0.57036,8.55476 -4.16315,21.99273 -3.92012,14.6623 -7.06486,26.29196 -7.71691,28.53818 l -0.53202,1.83273 h -12.54251 c -8.5271,0 -12.5425,-0.11735 -12.5425,-0.36654 0,-0.2016 0.61861,-2.59724 1.37468,-5.32364 3.09691,-11.16746 8.51442,-31.27718 8.95302,-33.23346 1.4714,-6.5629 -0.4924,-11.00589 -5.34457,-12.09176 -3.26214,-0.73003 -8.0841,0.7122 -10.26465,3.07012 -2.27112,2.45585 -4.4394,7.25998 -6.04128,13.38528 -0.52722,2.016 -1.86686,7.04291 -2.97697,11.17091 -1.11012,4.128 -2.91468,10.88291 -4.01014,15.01091 -1.09547,4.128 -2.05313,7.70182 -2.12815,7.94182 -0.1058,0.33849 -2.95751,0.43636 -12.71462,0.43636 -7.13431,0 -12.57823,-0.13472 -12.57823,-0.31128 z m 317.6041,0.12628 c -0.2094,-0.20939 0.40242,-2.66753 3.7335,-15.00045 1.03717,-3.84 2.11627,-7.84582 2.398,-8.90182 0.71083,-2.66433 5.37606,-19.92319 6.13357,-22.69091 0.58246,-2.12813 5.59443,-20.96178 6.34038,-23.82545 l 0.341,-1.3091 h 12.55382 c 8.28756,0 12.55382,0.12082 12.55382,0.35551 0,0.32604 -0.27388,1.38363 -2.07759,8.02268 -0.33906,1.248 -1.91406,7.13891 -3.5,13.0909 -1.58594,5.952 -5.26534,19.69746 -8.17645,30.54546 l -5.29293,19.72364 -12.40094,0.0974 c -6.82051,0.0536 -12.4933,0.005 -12.60618,-0.10785 z m 39.75256,-0.10214 c -0.12203,-0.23588 0.43848,-2.36302 9.39899,-35.66922 2.60855,-9.696 7.01292,-26.19055 9.78749,-36.65455 2.77456,-10.463996 5.37641,-20.242906 5.78189,-21.730906 l 0.73724,-2.70546 h 12.51251 c 10.71077,0 12.5125,0.0731 12.5125,0.50734 0,0.55344 -0.57674,2.76105 -5.43066,20.78721 -4.57271,16.981816 -8.11379,30.244636 -13.60791,50.967276 -2.62157,9.888 -5.18407,19.47054 -5.69444,21.29454 l -0.92796,3.31637 -12.47365,0.0619 c -6.86051,0.0341 -12.52871,-0.0445 -12.596,-0.17455 z M 155.86472,95.393314 c -0.0825,-0.14632 0.85073,-3.80059 2.07382,-8.12059 1.2231,-4.32 2.38583,-8.44363 2.58386,-9.16363 l 0.36005,-1.3091 h 13.07746 c 10.23216,0 13.07625,0.0949 13.07196,0.43637 -0.003,0.24 -1.14547,4.44218 -2.53876,9.33818 l -2.53326,8.90182 -12.97258,0.0915 c -7.13491,0.0503 -13.04006,-0.0282 -13.12255,-0.17455 z m 564.48029,0 c -0.0823,-0.14632 0.85251,-3.80059 2.07744,-8.12059 1.22492,-4.32 2.38753,-8.44363 2.58357,-9.16363 l 0.35644,-1.3091 h 13.07746 c 10.23145,0 13.07654,0.095 13.07329,0.43637 -0.002,0.24 -1.14596,4.44218 -2.5415,9.33818 l -2.53733,8.90182 -12.96984,0.0915 c -7.13341,0.0503 -13.0372,-0.0282 -13.11953,-0.17455 z"
       id="path1" />
  </g>
</svg>
