<?xml version="1.0" encoding="UTF-8" standalone="no"?>
<!-- Created with Inkscape (http://www.inkscape.org/) -->

<svg
   version="1.1"
   id="svg1"
   width="191.67999"
   height="51.84"
   viewBox="0 0 191.67999 51.84"
   xmlns="http://www.w3.org/2000/svg"
   xmlns:svg="http://www.w3.org/2000/svg"
   xmlns:rdf="http://www.w3.org/1999/02/22-rdf-syntax-ns#"
   xmlns:cc="http://creativecommons.org/ns#">
  <defs
     id="defs1" />
  <g
     id="g1">
    <path
       style="fill:#000000"
       d="m 16.217818,51.333815 c -5.257281,-0.928395 -6.08,-1.206308 -6.08,-2.053814 0,-1.337955 3.913979,-2.072829 11.039999,-2.072829 7.152327,0 11.04,0.734352 11.04,2.085371 0,0.591933 -0.918691,1.050517 -3.2,1.597348 -1.477966,0.35427 -11.365788,0.697195 -12.799999,0.443924 z m 55.140916,-8.129157 c -1.026407,-0.423666 -1.425927,-1.415132 -1.317309,-3.269093 0.142075,-2.425029 0.896391,-2.447102 0.896391,-0.02623 0,2.001123 0.352871,2.650667 1.439999,2.650667 1.083822,0 1.44,-0.649037 1.44,-2.624 0,-1.024 0.143449,-1.856 0.32,-1.856 0.479725,0 0.404912,4.331165 -0.08179,4.735092 -0.625607,0.519208 -1.927627,0.707256 -2.697291,0.389564 z m 52.699076,0.09683 c -1.95612,-0.745558 -2.54042,-3.030155 -1.13454,-4.436034 1.0802,-1.080207 3.69454,-1.051293 3.69454,0.04086 0,0.334809 -0.18826,0.366268 -0.8,0.133684 -1.04746,-0.398245 -2.33704,0.09405 -2.68083,1.023411 -0.58988,1.594608 0.51908,2.697453 2.40472,2.391455 0.8033,-0.130357 1.07611,-0.05804 1.07611,0.285252 0,0.252935 -0.18,0.461848 -0.4,0.464251 -0.22,0.0024 -0.688,0.0664 -1.04,0.142218 -0.352,0.07582 -0.856,0.05552 -1.12,-0.0451 z m 55.6,-0.0021 c -0.308,-0.08049 -0.56,-0.348185 -0.56,-0.59488 0,-0.327707 0.25861,-0.396814 0.96,-0.256536 1.32546,0.265093 1.25037,-0.376587 -0.19948,-1.7046 -1.09248,-1.000676 -1.13183,-1.103687 -0.68097,-1.782722 0.60799,-0.915684 2.25657,-1.006879 2.42464,-0.134125 0.0985,0.511268 0.0227,0.538267 -0.58997,0.210355 -0.53457,-0.286093 -0.79051,-0.286995 -1.06858,-0.0038 -0.2757,0.280819 -0.0705,0.610608 0.83436,1.340683 0.66,0.532539 1.2,1.234119 1.2,1.559068 0,0.524566 -1.15187,1.6466 -1.5912,1.549986 -0.0928,-0.02042 -0.4208,-0.102974 -0.7288,-0.183463 z M 57.497816,40.640001 c 0,-2.062222 0.09333,-2.56 0.48,-2.56 0.380952,0 0.48,0.462222 0.48,2.24 v 2.24 h 1.12 c 0.616,0 1.12,0.144 1.12,0.32 0,0.176 -0.72,0.32 -1.6,0.32 h -1.6 z m 26.946538,0.08 0.09346,-2.48 1.060904,-0.101834 c 1.319495,-0.126655 2.040498,0.43818 1.935524,1.516291 -0.04421,0.454049 0.09657,1.149543 0.312853,1.545543 0.691274,1.265694 -0.0041,2 -1.894,2 h -1.602202 z m 2.710134,1.327704 c 0.215618,-0.561892 -0.380036,-1.075133 -1.256673,-1.082804 -0.385307,-0.0034 -0.56,0.244662 -0.56,0.7951 0,0.642645 0.15933,0.8 0.810043,0.8 0.447538,0 0.898018,-0.22926 1.00663,-0.512296 z M 86.72153,39.871286 c 0.215781,-0.562315 -0.04211,-0.831285 -0.797048,-0.831285 -0.373334,0 -0.586667,0.232727 -0.586667,0.64 0,0.74543 1.112077,0.899164 1.383715,0.191285 z m 11.096285,0.768715 v -2.56 h 0.959999 c 1.200918,0 2.255726,0.990721 2.018926,1.896252 -0.0955,0.365061 -0.31058,0.663748 -0.47804,0.663748 -0.16746,0 -0.0303,0.396 0.30485,0.88 1.03567,1.495742 1.10052,1.68 0.59124,1.68 -0.26444,0 -0.73598,-0.432 -1.04788,-0.96 -0.311898,-0.528 -0.752041,-0.96 -0.978091,-0.96 -0.24334,0 -0.411005,0.391623 -0.411005,0.96 0,0.64 -0.16,0.96 -0.479999,0.96 -0.386667,0 -0.48,-0.497778 -0.48,-2.56 z m 2.152927,-0.858335 c 0.0693,-0.208084 -0.17079,-0.53715 -0.533483,-0.731259 -0.587587,-0.314467 -0.659445,-0.261967 -0.659445,0.481799 0,0.607208 0.145405,0.806522 0.533485,0.731259 0.29341,-0.05691 0.590163,-0.273715 0.659443,-0.481799 z m 11.287068,0.858335 c 0,-2.062222 0.0933,-2.56 0.48,-2.56 0.38667,0 0.48,0.497778 0.48,2.56 0,2.062222 -0.0933,2.56 -0.48,2.56 -0.38666,0 -0.48,-0.497778 -0.48,-2.56 z m 25.253,1.84 c 0.83593,-2.171528 1.94767,-4.4 2.19508,-4.4 0.15582,0 0.80139,1.152 1.4346,2.56 0.83217,1.850391 1.02775,2.56 0.70557,2.56 -0.24515,0 -0.59986,-0.288 -0.78825,-0.64 -0.23934,-0.447204 -0.67002,-0.64 -1.42969,-0.64 -0.80614,0 -1.13969,0.165444 -1.29031,0.64 -0.11172,0.352 -0.40586,0.64 -0.65364,0.64 -0.33599,0 -0.38006,-0.183031 -0.17336,-0.72 z m 2.56386,-2.203232 c -0.29214,-0.545877 -0.42208,-0.594126 -0.64635,-0.24 -0.43671,0.689553 -0.3454,0.923232 0.36075,0.923232 0.56583,0 0.6033,-0.08962 0.2856,-0.683232 z m 11.60968,0.443232 c 0.0612,-1.623687 0.22245,-2.48 0.46702,-2.48 0.20546,0 1.10546,0.836379 2,1.858621 l 1.62644,1.858621 v -1.965287 c 0,-1.429483 0.10905,-1.929206 0.4,-1.83294 0.26219,0.08675 0.4322,0.977938 0.49346,2.586666 0.11701,3.072826 -0.22091,3.157129 -2.46242,0.614319 l -1.62199,-1.84 -0.005,1.84 c -0.004,1.442573 -0.11111,1.84 -0.49799,1.84 -0.41021,0 -0.47769,-0.418418 -0.4,-2.48 z m 16.25346,0.4 c 0,-2.005333 -0.0287,-2.08 -0.8,-2.08 -0.49778,0 -0.8,-0.181333 -0.8,-0.48 0,-0.377436 0.44444,-0.48 2.08,-0.48 1.63556,0 2.08,0.102564 2.08,0.48 0,0.298667 -0.30222,0.48 -0.8,0.48 -0.77128,0 -0.8,0.07467 -0.8,2.08 0,1.635555 -0.10256,2.08 -0.48,2.08 -0.37744,0 -0.48,-0.444445 -0.48,-2.08 z M 15.69815,42.421156 C 13.043001,41.818896 9.3781271,40.062464 7.3235305,38.407524 4.7764426,36.355891 2.322769,32.468591 1.6551519,29.427239 l -0.2430535,-1.107238 1.4612603,1.346681 c 2.1452037,1.976995 3.3982447,2.41271 6.5001324,2.260267 2.4509099,-0.120451 2.8346159,-0.247109 6.8799999,-2.271033 6.345861,-3.174864 8.818417,-3.428687 11.535593,-1.184199 1.64993,1.362903 2.51033,3.298967 2.501705,5.629316 -0.01841,4.975245 -4.003581,8.399998 -10.072972,8.656457 -1.448747,0.06122 -3.410658,-0.08478 -4.519667,-0.336334 z m 2.439668,-1.203645 c 0,-0.21037 -0.396,-0.821846 -0.88,-1.358837 -0.820565,-0.910405 -0.824576,-0.927798 -0.05938,-0.25751 1.00212,0.877821 1.111187,0.881854 2.132057,0.07884 0.447495,-0.352 1.062408,-0.64 1.366472,-0.64 0.304064,0 1.096445,-0.432 1.760846,-0.96 0.664402,-0.528 1.44905,-0.96 1.743662,-0.96 0.294613,0 0.88417,-0.324 1.310128,-0.72 l 0.774469,-0.72 -1.114129,-0.197875 -1.11413,-0.197875 1.016703,-0.04212 c 1.370139,-0.05677 3.10129,-2.0548 2.8085,-3.241469 -0.291628,-1.18196 -0.370215,-1.17974 -1.671077,0.04719 -3.012868,2.841638 -5.292525,4.27 -8.668829,5.431619 -2.275865,0.783012 -6.017575,0.782679 -8.2852959,-7.38e-4 -0.9240004,-0.319209 -1.6800003,-0.541641 -1.6800003,-0.494294 0,0.295288 4.5192272,3.166501 5.7436272,3.649115 2.40416,0.947631 4.816373,1.240101 4.816373,0.583963 z m 3.526404,-8.420822 c 0.915929,-0.473646 1.593595,-1.356968 1.593595,-2.077215 0,-0.446403 -0.746304,-0.230914 -3.515769,1.01515 -1.593138,0.7168 -1.965149,1.003891 -1.6,1.234763 0.72035,0.455454 2.47371,0.369484 3.522174,-0.172698 z m 7.584222,7.427886 c 1.241599,-1.312808 1.782894,-2.205456 2.197124,-3.623271 0.815054,-2.789738 0.334447,-5.055394 -2.106097,-9.928471 -3.132183,-6.254086 -3.260317,-9.033037 -0.541671,-11.747688 4.073359,-4.067374 10.787494,-2.045894 13.051307,3.929465 0.509584,1.345053 0.674479,2.495696 0.668583,4.665391 -0.02351,8.649517 -5.857136,16.257713 -13.9683,18.217398 -0.913459,0.220695 -0.887685,0.164919 0.699054,-1.512824 z m 7.571471,-4.561194 c 0.109279,-0.284776 0.05563,-0.413223 -0.125764,-0.301115 -0.173984,0.107528 -0.316334,0.331007 -0.316334,0.49662 0,0.460299 0.229365,0.358868 0.442098,-0.195505 z m 1.585513,-2.526537 c 0.788581,-1.189705 0.806037,-1.297668 0.300179,-1.856634 -0.512127,-0.565894 -0.563305,-0.499753 -1.101197,1.423157 -0.31026,1.109149 -0.569167,2.081434 -0.575351,2.160634 -0.01918,0.245646 0.503321,-0.410019 1.376369,-1.727157 z m 0.754583,-6.959372 c 0.181257,-0.229609 0.426617,-0.823272 0.545245,-1.319251 0.178524,-0.746404 8.11e-4,-1.159921 -1.031425,-2.4 C 37.98792,21.6342 36.998973,20.268478 36.476172,19.423283 34.94593,16.949394 31.957895,14.76659 31.174299,15.550185 c -0.104601,0.104602 0.670084,1.214758 1.721523,2.467014 2.302197,2.741899 3.574614,4.899031 4.322588,7.328094 0.572637,1.859653 0.989465,2.038307 1.941601,0.832179 z m -6.17643,-1.403643 c 0.353633,-0.921555 0.202304,-2.063509 -0.440398,-3.323309 -0.58013,-1.13715 -1.716745,-1.925807 -2.150439,-1.492113 -0.231725,0.231726 1.821598,5.321594 2.146805,5.321594 0.137387,0 0.337202,-0.227778 0.444032,-0.506172 z m 32.983365,10.31692 C 65.432967,34.847804 64.554937,34.207891 64.015768,33.668722 63.271991,32.924945 54.348081,20.883098 47.315167,11.133077 46.908691,10.569561 47.153214,10.550448 53.705576,10.633571 l 6.813058,0.08643 3.529591,4.868803 c 1.941275,2.677842 3.681496,5.018547 3.867158,5.201568 0.235362,0.232012 1.49362,-1.266342 4.155808,-4.948804 l 3.818242,-5.281567 h 24.901017 c 28.01979,0 27.73075,-0.02074 31.22912,2.240371 1.05182,0.679822 2.07668,1.543002 2.27746,1.918177 0.35777,0.668492 0.3921,0.65722 1.71645,-0.563517 3.18472,-2.93558 6.35305,-3.698884 14.60731,-3.519149 6.61612,0.144066 8.10926,0.461556 10.85244,2.307575 l 1.62458,1.093263 v -1.73836 -1.73836 h 5.44 5.44 v 7.355016 7.355017 l 8.95542,0.08498 8.95541,0.08498 -3.75541,4.868712 -3.75542,4.868712 -10.64,0.01129 -10.64,0.01129 v -1.76 c 0,-0.968 -0.0678,-1.76 -0.15064,-1.76 -0.0829,0 -0.76686,0.432003 -1.52,0.960007 -2.73963,1.92066 -4.61652,2.351241 -10.86699,2.493027 -3.1117,0.07059 -6.31306,-0.01145 -7.11414,-0.182305 -0.80108,-0.170853 -1.37864,-0.184662 -1.28348,-0.03069 0.0971,0.157084 -3.32953,0.279957 -7.80727,0.279957 h -7.98028 l -3.09755,-2.56 -3.09756,-2.56 h -2.70104 -2.70105 v 2.56 2.56 l -22.319995,0.0028 c -12.276,0.0015 -23.039999,0.07634 -23.919999,0.166234 -1.009622,0.10314 -1.958238,4.63e-4 -2.57087,-0.278267 z m 3.776609,-2.692433 c 0.487156,-0.307073 4.047911,-4.806315 7.91279,-9.998315 l 7.027051,-9.44 -3.546989,-0.0908 c -2.011766,-0.0515 -3.711952,0.04611 -3.928121,0.225511 -0.209623,0.173972 -2.311359,2.97733 -4.670525,6.229685 -2.359166,3.252355 -4.388837,5.851912 -4.510381,5.776794 -0.121543,-0.07512 -2.195099,-2.873616 -4.607901,-6.218884 L 59.032566,12.800001 H 55.348388 51.66421 l 0.545353,0.832314 c 2.102195,3.208356 12.893803,17.737009 13.702591,18.447686 1.169067,1.027252 2.527644,1.140123 3.831401,0.318315 z m 14.395912,-4.965761 c 2.068908,-2.855905 4.096508,-5.611072 4.505777,-6.122594 l 0.744126,-0.93004 2.620473,3.65004 2.620473,3.65004 -4.314519,0.16 -4.31452,0.16 -1.63354,2.32 -1.633541,2.32 h 11.400695 c 9.031439,0 11.352289,-0.08313 11.167789,-0.4 -0.1281,-0.22 -3.0383,-4.393661 -6.467113,-9.274801 -5.502252,-7.832812 -6.397096,-8.953653 -7.621547,-9.5464 -2.752685,-1.332552 -4.193759,-0.393419 -8.447471,5.505125 -1.822943,2.527842 -4.7977,6.648076 -6.610571,9.156076 l -3.296129,4.56 3.758983,-0.0074 3.758983,-0.0074 z m 28.398343,2.807446 v -2.4 l 4.4,0.0071 4.4,0.0071 2.87078,2.392946 2.87078,2.392946 h 4.31779 c 3.61856,0 4.24191,-0.06908 3.84922,-0.426544 -0.25771,-0.2346 -1.80855,-1.547148 -3.44631,-2.916774 -2.87951,-2.408084 -2.95341,-2.502866 -2.24,-2.873297 2.86592,-1.488112 4.14346,-3.360875 4.14346,-6.073973 0,-2.952934 -1.41625,-4.98861 -4.39031,-6.310487 -2.32284,-1.032436 -6.68691,-1.272671 -21.31946,-1.173603 l -13.984055,0.09468 1.927403,2.48 1.927403,2.48 h 13.586929 c 11.07588,0 13.78991,0.08481 14.68526,0.458913 1.91684,0.800908 1.90542,3.086038 -0.0194,3.890299 -0.84386,0.352591 -3.10262,0.450788 -10.36916,0.450788 h -9.29028 v 4.96 4.96 h 3.04 3.04 z m 45.7984,1.396747 c 2.37307,-1.112704 4.21748,-2.821867 5.22329,-4.84027 1.16562,-2.339089 1.16425,-5.816608 -0.003,-8.159392 -2.04374,-4.101258 -6.19089,-5.817325 -14.05848,-5.817325 -6.29934,0 -9.88563,1.049033 -12.4901,3.653502 -1.57785,1.577842 -2.3899,3.703541 -2.3899,6.255991 0,4.350327 2.7234,7.811105 7.33086,9.315753 1.52824,0.499072 2.72243,0.57339 8.18914,0.509634 6.16819,-0.07194 6.46514,-0.105183 8.1984,-0.917893 z m -14.20143,-4.242612 c -2.01772,-0.739313 -2.92987,-1.64733 -3.42732,-3.411783 -0.42512,-1.507905 0.0276,-3.020143 1.29584,-4.328648 1.43599,-1.481563 2.9872,-1.80088 8.15601,-1.678911 4.99526,0.117873 6.30988,0.517325 7.5848,2.304659 0.96121,1.347534 0.98898,3.944903 0.0556,5.195124 -1.34254,1.798182 -2.71093,2.197561 -7.82186,2.282894 -3.31391,0.05533 -4.98382,-0.04851 -5.84303,-0.363335 z m 11.25043,-2.883731 c 0.89073,-0.807292 0.89074,-2.453505 1e-5,-3.260808 -0.58518,-0.530383 -1.28846,-0.622932 -5.41214,-0.712221 -3.8164,-0.08263 -4.92754,-0.0054 -5.70473,0.396491 -1.67549,0.86643 -1.74405,2.957409 -0.12647,3.857199 0.69664,0.387511 1.86813,0.471042 5.72333,0.40809 4.25053,-0.06941 4.93022,-0.154216 5.52,-0.688751 z m 29.65178,5.809596 1.81574,-2.32 -7.63746,-0.16 -7.63746,-0.16 -0.0859,-7.44 -0.0859,-7.44 h -2.8741 -2.8741 v 9.92 9.92 h 8.78172 8.78172 z m -81.24873,-9.73622 c -0.0758,-0.07584 -0.93005,-0.09421 -1.89826,-0.04083 l -1.76037,0.09705 1.80409,2.514202 1.80409,2.514201 0.0942,-2.473369 c 0.0518,-1.360353 0.0321,-2.535417 -0.0437,-2.611254 z m -13.970445,4.555105 c 0,-0.337752 -0.614116,-0.479651 -0.796774,-0.184105 -0.110548,0.178871 0.0235,0.32522 0.297888,0.32522 0.274387,0 0.498886,-0.0635 0.498886,-0.141115 z M 6.1168976,29.795069 C 2.6708966,28.229901 0.84800613,25.199669 0.60985974,20.640596 0.27612104,14.251504 3.4343397,7.7707831 8.6145041,4.2149241 c 1.3994779,-0.960653 5.2277379,-2.614924 6.0513739,-2.614924 0.194398,0 -0.224704,0.627223 -0.931336,1.393829 -1.571069,1.704408 -1.882358,2.267944 -2.312145,4.185738 -0.523697,2.336839 0.100536,5.0769939 1.991197,8.7406329 2.629784,5.09588 3.33239,7.928955 2.50566,10.10342 -0.485941,1.278121 -2.321704,3.154034 -3.698691,3.779587 -1.672262,0.759692 -4.4212182,0.756027 -6.1036654,-0.0081 z m 5.8937134,-2.134281 c 0.06204,-0.05484 -0.750094,-1.124816 -1.804733,-2.377727 C 8.1748725,22.870227 6.4404774,19.911837 5.8149904,17.793444 5.6070582,17.089221 5.2713235,16.457836 5.0689133,16.390366 4.8665031,16.322896 4.2512246,16.717363 3.7016277,17.26696 c -0.9112728,0.911273 -0.9558581,1.047426 -0.5063131,1.546154 0.2711248,0.300788 0.7031727,1.158635 0.9601066,1.906327 0.5009354,1.45775 2.2749085,3.738295 3.1665083,4.070729 0.2992614,0.111581 0.8510722,0.699546 1.2262463,1.306591 0.8813543,1.426061 1.8788002,2.114259 2.6998272,1.862775 0.357398,-0.109472 0.700572,-0.243909 0.762608,-0.298748 z m 1.007207,-4.416775 c 0,-0.323232 -1.988493,-4.880505 -2.238707,-5.130719 -0.174205,-0.174205 -0.445404,0.04899 -0.676908,0.557083 -0.7222979,1.585271 0.792324,4.689624 2.28808,4.689624 0.345144,0 0.627535,-0.05219 0.627535,-0.115988 z M 5.8321557,9.3600001 c 0.2347485,-0.748 0.3839434,-1.36 0.3315444,-1.36 -0.052399,0 -0.5992247,0.759009 -1.2151679,1.686687 C 3.8810095,11.294493 3.8524814,11.409288 4.3385273,12.141312 l 0.509892,0.767939 0.2784605,-1.094625 C 5.2800331,11.212582 5.5974073,10.108001 5.8321557,9.3600001 Z M 17.456163,15.370426 c -1.373809,-0.41552 -2.844478,-1.674708 -3.749619,-3.210425 -1.11206,-1.886788 -1.175976,-4.9404589 -0.144005,-6.8800009 0.936012,-1.759191 2.825488,-3.506811 4.735279,-4.37976904 2.376356,-1.086224 7.086647,-1.023268 10.347073,0.13829504 5.12979,1.827545 8.792556,4.946299 10.923978,9.3014949 0.705217,1.440989 1.378171,3.257236 1.495454,4.036106 l 0.213241,1.416126 -1.228045,-1.3593 c -1.573679,-1.741874 -3.318073,-2.621576 -5.610641,-2.829459 -2.320112,-0.21038 -4.553147,0.321733 -7.981061,1.90182 -4.03391,1.859419 -6.993222,2.472578 -9.001654,1.865112 z m 5.889926,-3.851071 c 2.554898,-0.95591 2.39594,-1.9193539 -0.316673,-1.9193539 -1.849327,0 -4.008967,1.6581579 -3.413827,2.6211149 0.246182,0.398331 1.340384,0.192496 3.7305,-0.701761 z M 17.500087,9.7421911 c 1.947511,-1.615209 6.190468,-3.816517 8.134209,-4.220148 1.514469,-0.314489 1.685559,-0.673458 0.835841,-1.7537 l -0.644933,-0.819899 -1.717759,0.698149 c -0.944767,0.383982 -2.410429,1.307863 -3.257027,2.053068 -0.846597,0.745205 -1.911268,1.432215 -2.365934,1.526688 -1.262639,0.26236 -1.723072,0.580316 -2.506666,1.730999 -0.703452,1.032997 -0.961133,2.2426529 -0.477731,2.2426529 0.133248,0 1.033248,-0.656015 2,-1.4578099 z M 35.15145,6.3046251 c -0.189602,-0.228457 -0.984923,-0.875127 -1.76738,-1.437045 -1.402812,-1.007424 -1.432829,-1.013427 -2.152696,-0.430514 l -0.730046,0.591155 1.578245,0.384571 c 0.868034,0.211514 1.938244,0.587062 2.378244,0.83455 1.006926,0.566371 1.124175,0.576053 0.693633,0.05728 z"
       id="path1" />
  </g>
  <metadata
     id="metadata1">
    <rdf:RDF>
      <cc:Work
         rdf:about="">
        <cc:license
           rdf:resource="midlandoilgroup.co.uk" />
      </cc:Work>
    </rdf:RDF>
  </metadata>
</svg>
